<?xml version="1.0" ?><svg height="248.22437mm" viewBox="0 0 244.55305 248.22437" width="244.55305mm" xmlns="http://www.w3.org/2000/svg">
    <path d="m 403.95459,-2356.1158 51.78839,73.565 c 0,0 58.6462,-26.1769 124.62317,-1.7026 65.97697,24.4744 111.69575,104.8496 128.48559,157.4163 16.78985,52.5667 26.24893,102.4376 24.83005,127.8342 -1.41887,25.3966 -18.12987,56.4684 -18.12987,56.4684 0,0 47.76821,26.035 96.64006,16.529 48.87185,-9.506 79.99625,-26.5436 114.20653,-15.406 34.21028,11.1376 68.42055,20.9983 68.42055,20.9983 0,0 13.32154,-35.0445 54.86264,-40.6487 41.541,-5.6043 87.0233,12.3436 94.9847,73.1393 7.9614,60.7957 -22.1148,154.5435 -23.5417,191.9582 -1.427,37.4146 16.5533,43.841 16.5533,43.841 0,0 -35.7079,13.8333 -62.0357,-5.6043 -26.3277,-19.4376 -41.0681,-93.1444 -44.0634,-120.1726 -2.9954,-27.0282 -14.8981,-51.9282 -14.8981,-51.9282 0,0 -20.49457,52.9214 -60.85326,77.3248 -40.35869,24.4034 -94.49988,42.4741 -183.46607,44.0166 -88.96619,1.5424 -192.64956,-21.1402 -223.62801,-103.7146 -30.97844,-82.5743 -13.33262,-226.2361 -13.33262,-226.2361 0,0 -68.42052,65.6906 -112.72049,69.8052 -44.29996,4.1145 -80.71734,-8.3 -93.32943,-39.7265 -12.61208,-31.4265 -2.60123,-46.4658 23.72649,-74.5582 26.32771,-28.0923 59.10153,-77.9898 59.10153,-77.9898 0,0 -45.32467,8.5128 -58.01559,4.753 -12.69091,-3.7599 14.74036,-15.2522 14.81919,-34.9735 0.0788,-19.7214 2.12829,-48.665 16.86867,-56.7522 14.74038,-8.0872 39.25511,-10.641 39.25511,-10.641 0,0 -27.51246,-76.266 -21.15173,-97.595 z" fill="none" transform="translate(-34.794642,46.772588) matrix(0.28257857,0,0,0.28257857,-54.213822,624.13303)"/>
    <path d="m 548.31489,-1498.4903 c -6.21424,-7.1315 0.7663,-98.7856 10.29562,-135.1781 7.63254,-29.1485 28.73182,-83.4034 38.48354,-98.9571 4.59187,-7.3235 -8.54488,-10.3267 -14.60539,-16.0912 -28.89367,-27.4825 -48.41764,-59.4882 -55.33298,-94.1668 -7.6729,-39.6223 -5.424,-89.2544 -0.41153,-134.9999 l 4.1392,-37.7736 -24.37154,17.0517 c -13.40433,9.3788 -35.95867,24.0866 -50.44919,30.1452 -23.21397,9.706 -33.66759,16.5258 -58.48739,14.7478 -43.67492,-4.6867 -85.00854,-38.7119 -82.47813,-78.868 1.67594,-24.3821 13.71703,-34.7406 41.01245,-62.0764 31.53105,-31.5774 49.29417,-61.5661 31.80722,-53.6987 -15.59743,7.0173 -63.31453,-1.7177 -62.64437,-11.4675 0.14143,-2.0575 6.04226,-5.7042 13.11268,-8.1037 17.30468,-5.872 19.22034,-9.2896 24.11242,-43.0158 4.01023,-27.6449 4.93676,-29.6582 18.70151,-40.6351 7.96515,-6.3518 19.46969,-12.1947 25.56514,-12.9839 8.79696,-1.139 10.51,-2.7252 8.30455,-7.6876 -6.5573,-14.7547 -21.78985,-75.6272 -22.12751,-88.426 -0.29813,-11.3122 0.85929,-13.8796 6.09112,-13.5199 8.35683,0.5744 19.44115,14.5241 43.14153,54.2934 14.64866,24.5803 13.3501,25.6509 18.07539,23.9902 16.53291,-5.8092 51.48641,-10.1624 70.1301,-8.8809 86.27784,5.9305 143.77823,54.1532 188.02341,163.3527 26.15599,64.5548 24.29197,83.5501 23.77285,121.7137 -0.37777,27.7901 -1.7457,34.2426 -11.2465,53.053 l -6.35686,13.7487 11.29769,6.1214 c 19.33397,10.4757 49.83497,12.7444 89.69106,2.3634 73.85824,-19.2375 102.25959,-18.7455 160.35261,10.4863 4.34468,2.1862 5.68242,3.6114 5.94242,-0.1712 0.57595,-8.3791 30.42499,-27.647 47.09019,-32.1474 8.1565,-2.2029 25.7781,-3.2131 39.1589,-2.2451 35.8423,2.5919 53.6451,15.7085 67.6188,49.816 10.3202,25.1898 10.4619,26.6757 7.0517,73.8664 -2.5518,35.3007 -6.3472,58.0425 -14.2177,85.1746 -13.895,47.9002 -15.834,73.9918 -6.5159,87.6742 8.7009,12.7759 12.1561,13.0326 30.5944,2.2729 8.1141,-4.7347 15.7539,-7.46 16.977,-6.0563 4.5489,5.2204 -10.882,21.9753 -27.4696,29.8257 -13.9255,6.5906 -22.0028,7.7358 -43.0242,6.0995 -37.5582,-2.9231 -54.0346,-15.0114 -68.9359,-50.5758 -7.9662,-19.0126 -20.4014,-82.7139 -19.2935,-98.8328 0.9736,-14.1632 -3.7714,-13.7453 -12.1278,1.0684 -10.65725,18.8925 -29.56773,35.678 -56.65672,50.2901 -13.68143,7.3795 -25.02277,15.5676 -25.2034,18.1955 -0.94086,13.688 43.56581,109.4104 68.56639,147.4681 15.02073,22.8662 27.30813,44.1587 27.30543,47.3169 -0.01,11.6463 -15.8604,7.3976 -27.61727,-7.4029 -31.94083,-40.2082 -75.68266,-126.5314 -85.00987,-167.7639 -2.98211,-13.1832 -4.60946,-15.0388 -12.02353,-13.7104 -25.07602,4.4924 -26.22211,5.662 -33.15484,33.8274 -3.63307,14.7597 -10.45993,38.279 -15.17136,52.2654 -4.71115,13.9866 -13.42773,43.4948 -19.3701,65.5738 -12.38229,46.0088 -20.14242,63.6624 -27.75374,63.1392 -9.84537,-0.6767 -8.81052,-18.9803 3.61392,-63.9197 11.01173,-39.8296 37.71406,-116.8696 46.68633,-134.6967 2.74438,-5.4537 2.03589,-6.4044 -3.80399,-5.1051 -21.09726,4.6939 -73.59669,5.5091 -111.16373,1.726 -36.84671,-3.7103 -42.41033,-3.5159 -40.88808,1.4299 0.96915,3.1486 3.97321,19.2577 6.67573,35.7982 6.65011,40.703 11.17474,55.792 31.68074,105.6534 20.56344,49.9998 22.33882,61.6059 9.28788,60.7088 -7.60908,-0.523 -11.84113,-7.5752 -30.24505,-50.3996 -23.07355,-53.6898 -30.50444,-85.0447 -30.88162,-130.31 l -0.24024,-28.8452 -31.13685,-9.9965 c -24.18799,-7.7658 -31.86764,-9.0224 -34.41316,-5.6305 -1.80204,2.4013 -10.15548,21.4559 -18.56333,42.3434 -17.33474,43.0649 -31.58301,103.2378 -34.50233,145.7087 -2.12486,30.913 -8.59158,45.0639 -16.46467,36.0285 z m 571.38281,-160.0591 c 0.1107,-1.6113 -6.6313,-10.6239 -14.9822,-20.0283 -21.1371,-23.8029 -23.5154,-38.4226 -16.1212,-99.0944 8.8081,-72.2761 1.1706,-127.3533 -19.8722,-143.3062 -10.44,-7.9145 -40.5462,-10.0672 -53.3831,-3.8172 -9.1967,4.4781 -8.8858,4.6463 7.1677,3.8754 23.7538,-1.1408 37.8849,9.9623 48.513,38.1184 7.8438,20.7802 8.086,25.8047 4.9854,103.3907 -3.5108,87.858 -0.8581,108.1678 15.3378,117.4147 9.3263,5.3243 28.0691,7.6028 28.3548,3.4465 z m -50.8476,-25.6417 c -1.8631,-5.7501 -2.3918,-44.2125 -1.1746,-85.4724 2.5278,-85.6972 -0.9791,-111.4107 -17.6278,-129.2529 -7.7906,-8.3492 -14.1825,-11.4889 -24.8894,-12.2248 -7.9235,-0.5446 -14.4495,-0.3673 -14.5018,0.3938 33.4842,34.457 20.3241,73.9129 24.1448,103.4093 8.8447,69.1943 15.3495,98.0197 27.2639,120.8221 7.9986,15.3084 11.3651,16.4621 6.7849,2.3249 z m 56.6706,-86.2411 c 24.4954,-84.6194 16.1471,-152.6315 -21.2112,-172.7949 -18.1104,-9.775 -39.2822,-11.6208 -62.5021,-5.4497 -24.6969,6.5637 -25.5773,10.7511 -2.0919,9.9471 34.9885,-1.1976 50.8629,15.3052 60.3893,62.7801 3.9056,19.4627 3.8244,37.1541 -0.4155,90.5326 -4.8331,60.8467 -4.712,67.7833 1.4645,83.7321 l 6.734,17.3895 4.8604,-29.4018 c 2.6728,-16.1707 8.4205,-41.7012 12.7725,-56.735 z m -310.21025,49.0723 c 13.26406,-1.2267 37.53437,-5.6647 53.93393,-9.8619 l 29.81736,-7.6319 0.0756,-18.8286 c 0.0612,-15.1652 1.2771,-18.9844 6.27973,-19.6277 4.27805,-0.5509 7.27083,3.3765 9.64046,12.6506 1.8898,7.3972 5.10604,13.5646 7.14676,13.7048 7.22204,0.4965 46.135,-23.9675 55.3132,-34.7746 14.49661,-17.0694 23.56271,-39.7593 25.13941,-62.9161 2.484,-36.5427 -11.99716,-54.1562 -59.56654,-72.4328 -31.08129,-11.9419 -55.71617,-11.8475 -107.83558,0.4131 -26.33432,6.1948 -44.81511,8.2581 -62.86058,7.0177 -26.61131,-1.8292 -50.71211,-10.895 -50.16394,-18.8699 0.21073,-3.0658 -1.00798,-3.4724 -3.61095,-1.2042 -6.9976,6.0973 -12.41663,48.2551 -7.58372,58.9973 5.20508,11.5694 1.35564,14.7067 -20.73023,16.8945 -19.75029,1.9564 -34.70654,-3.3176 -48.32809,-17.0419 -17.08286,-17.2119 -23.67741,-44.1302 -24.53899,-100.1645 -1.54833,-100.6898 -6.81974,-137.6759 -21.63494,-151.7953 -4.04947,-3.8591 -4.65929,-1.9274 -3.72897,11.8156 1.35953,20.0845 -5.90357,35.7468 -30.42693,65.6138 l -17.69643,21.5526 -1.05019,61.2576 c -2.08405,121.5704 9.09087,163.8215 52.51374,198.553 7.96959,6.3744 14.99104,10.9575 15.60307,10.1847 0.61231,-0.7725 6.13195,-8.1686 12.26608,-16.4352 10.73198,-14.4632 19.54729,-18.4089 23.66577,-10.5929 1.07562,2.0418 -2.98685,12.0015 -9.02756,22.1331 -6.04071,10.1316 -9.69674,19.86 -8.12381,21.6187 9.1646,10.2481 138.93428,24.0781 185.51226,19.7704 z m 105.65441,-74.1838 c 0.17036,-2.4787 4.08473,-9.1046 8.69898,-14.7251 7.00516,-8.5326 7.43228,-10.2844 2.58842,-10.6174 -6.49345,-0.4463 -7.39505,-6.2692 -1.45573,-9.3986 2.52429,-1.3302 2.78386,-4.4456 0.7478,-8.9718 -4.03485,-8.9684 -0.19393,-12.1645 8.25368,-6.8681 5.66899,3.5542 6.75195,2.8133 7.28804,-4.9858 0.34632,-5.0384 2.36513,-10.0751 4.48624,-11.1926 2.2674,-1.1949 3.51797,2.897 3.0346,9.9293 l -0.82223,11.9619 9.83024,-8.0403 c 12.16509,-9.9499 16.24694,-6.581 6.9252,5.7151 -6.69886,8.8364 -6.66926,9.1565 0.89646,9.6766 9.26663,0.6369 9.99621,6.3391 1.15782,9.0518 -5.61611,1.7235 -5.59512,2.7156 0.21874,10.3351 6.83374,8.9561 6.87641,8.9557 -11.30449,0.082 -3.57554,-1.745 -5.77896,0.636 -7.27644,7.8629 l -2.14798,10.3663 -3.15731,-9.1748 c -3.05712,-8.8841 -3.33886,-8.9623 -8.89143,-2.4698 -9.05623,10.5894 -19.43956,16.8311 -19.07061,11.4636 z m -111.77317,-25.4382 c 1.32312,-2.8518 -1.25893,-4.7328 -7.04345,-5.1304 -12.77736,-0.8783 -11.00315,-6.8018 2.56337,-8.5586 9.67927,-1.2532 11.40235,-3.1472 12.33405,-13.5555 1.02744,-11.4594 1.26684,-11.6399 4.55583,-3.4159 l 3.47271,8.6824 9.20575,-7.5297 c 10.36985,-8.4816 11.87732,-4.3921 2.6093,7.0776 -5.53994,6.8555 -5.51539,7.769 0.25942,9.7433 5.41088,1.8497 5.08883,2.4955 -2.13526,4.2795 -4.67916,1.156 -8.711,5.0607 -8.9596,8.6774 -0.32287,4.6971 -3.09513,6.2413 -9.70169,5.4044 -5.74584,-0.728 -8.45835,-2.8775 -7.16043,-5.6745 z m 59.22472,-21.203 c 0.0769,-1.1186 3.01731,-6.7706 6.53414,-12.5604 6.26608,-10.315 6.20686,-10.5396 -2.94908,-11.1689 -5.13917,-0.3533 -9.2294,-2.3072 -9.08954,-4.3418 0.13985,-2.0346 2.75145,-3.5277 5.80356,-3.3179 6.75943,0.4646 7.41399,-3.7572 1.66963,-10.7727 -3.52365,-4.3037 -2.52017,-4.6885 5.64135,-2.164 9.43788,2.9192 9.8555,2.5131 8.46424,-8.2309 -1.79653,-13.8738 5.93855,-15.0984 8.40497,-1.3307 1.99627,11.1415 3.86813,11.755 10.79132,3.5354 6.9381,-8.2372 10.97923,-2.877 5.0094,6.6446 -4.35642,6.9485 -3.97004,7.4103 4.87393,5.8257 5.89557,-1.0561 9.49843,-0.1642 9.3284,2.3094 -0.15234,2.2163 -4.55607,4.7967 -9.78619,5.7334 -8.03356,1.4394 -8.84118,2.632 -5.20362,7.6833 3.69453,5.1304 3.19654,5.5417 -3.50809,2.8953 -6.72083,-2.6531 -7.59323,-1.9205 -6.23785,5.2373 1.22513,6.4695 0.3195,7.7379 -4.06767,5.6992 -3.23869,-1.5049 -8.60952,0.2342 -12.60482,4.082 -6.64209,6.3971 -13.37232,8.5807 -13.07408,4.2417 z m -199.67587,-43.795 c -9.39345,-20.4753 -9.08323,-42.1988 9.1,-91.6102 24.41138,-66.3362 22.97536,-110.311 -5.22451,-159.9775 -16.18431,-28.5042 -30.61499,-39.0887 -58.31529,-42.7725 -12.92472,-1.719 -23.39814,-4.5963 -23.27458,-6.3939 0.3671,-5.3406 44.15864,-0.6942 54.88851,5.8237 23.2145,14.1014 45.92214,53.9187 55.28429,96.9383 6.00502,27.5945 1.0217,67.2149 -12.74978,101.3663 -5.214,12.9297 -11.40249,37.7429 -13.75192,55.1407 -4.246,31.4407 1.83909,36.0262 6.33006,45.0387 12.56258,18.1082 10.75258,11.3969 12.12802,-6.9322 1.78497,-23.7777 7.50228,-41.3299 22.37811,-68.714 20.61719,-37.9534 13.42213,-90.5237 -25.47195,-186.1102 -21.99043,-54.0432 -44.61898,-90.3921 -56.8033,-91.2439 -4.14694,-0.285 -15.2248,2.7081 -24.61824,6.6621 -15.52599,6.5355 -17.39928,8.688 -20.60513,23.6732 -4.68066,21.881 -17.50167,47.789 -22.58115,45.6308 -4.39444,-1.8671 -3.96902,-9.1799 2.2193,-38.1557 2.59726,-12.1619 2.70739,-23.7846 0.31402,-33.1525 -3.45189,-13.5102 -4.04139,-14.0032 -9.29149,-7.77 -7.12503,8.4592 -13.79501,27.9883 -16.24433,47.5617 -1.70666,13.6381 -3.18342,15.5549 -13.91429,18.0578 -14.00271,3.2661 -29.48492,-4.136 -34.09617,-11.0218 -2.31511,-3.457 2.36618,-12.1728 5.47526,-11.4333 1.76337,0.3666 8.54761,2.0443 15.076,3.7312 l 11.86924,3.0669 1.8396,-10.732 c 1.47574,-21.4693 12.25371,-45.9629 26.56744,-60.3764 10.72325,-11.3713 10.25922,-13.9735 19.48847,-1.6113 7.67287,10.2776 7.68495,10.28 22.83051,4.9896 l 15.15378,-5.2932 -16.15923,-7.1141 c -30.21741,-13.3028 -29.80566,-13.324 -47.22707,2.4177 -20.04384,18.1116 -27.79786,30.9058 -33.00148,54.4542 -3.11862,14.1134 -4.56945,16.5279 -6.40671,10.6618 -2.10737,-6.7294 -2.45606,-6.8318 -3.09507,-0.9092 -1.49048,13.8147 -7.35294,1.1564 -8.43207,-18.2055 -1.31335,-23.567 4.83451,-41.291 18.91564,-54.5349 5.36442,-5.0454 9.80475,-9.92 9.86746,-10.8322 0.38143,-5.5492 -53.696,-0.4902 -57.9348,5.4199 -1.02294,1.426 4.58674,17.5641 12.46596,35.8627 7.87892,18.2982 14.05074,37.2705 13.7146,42.1609 -1.33566,19.4314 -29.5655,34.1206 -46.63043,24.2635 -7.4748,-4.3177 -16.99722,6.9589 -39.42745,46.6913 -13.97533,24.7549 -22.47756,34.8659 -43.2443,51.4241 -19.90851,15.8744 -26.54315,23.5819 -28.86923,33.5382 -4.15531,17.7877 -1.29866,30.0749 9.84642,42.3496 22.78689,25.096 62.37427,31.6472 97.51668,16.1374 46.36311,-20.4613 102.50508,-65.9196 120.69272,-97.7241 9.42143,-16.475 13.65832,-49.0835 7.32236,-56.3547 -2.10873,-2.4202 -2.60231,-6.1171 -1.09707,-8.2158 1.81754,-2.534 8.41961,-0.4274 19.65683,6.2728 13.55135,8.0797 18.60019,14.155 25.35867,30.5122 12.05877,29.1859 13.91435,43.4112 14.11093,108.1624 0.25707,84.6855 5.64523,110.2479 26.32577,124.8943 16.91748,11.9812 20.31176,12.9922 12.71017,-3.5772 z m -24.51181,-21.8115 c -6.91942,-15.9801 -2.02602,-53.8653 11.87096,-91.9056 7.96888,-21.8143 9.85148,-32.6036 9.51483,-54.534 -0.94635,-61.6465 -23.80367,-95.8522 -70.5955,-105.6457 -18.40069,-3.8515 -18.476,-3.9245 -7.74722,-7.5253 20.77098,-6.9711 57.78894,13.0931 73.55117,39.866 9.65361,16.3967 15.65305,44.5397 16.06742,75.372 0.2919,21.7216 -2.03494,33.0927 -14.0278,68.5291 -15.42175,45.57 -17.67268,58.7526 -12.78252,74.8629 4.51091,14.8618 0.45354,15.5419 -5.85134,0.9806 z m -267.61519,-107.4854 c -2.30372,-4.372 5.78822,-18.1014 10.47904,-17.779 5.11334,0.3514 7.3416,6.6167 4.51583,12.6971 -3.14884,6.7754 -12.44272,9.9253 -14.99487,5.0819 z m -25.06333,-4.1152 c -1.26319,-1.4497 -2.00541,-6.1004 -1.64937,-10.3349 0.63707,-7.5645 3.09712,-9.7413 7.94771,-2.319 2.71597,4.1547 2.48309,11.0753 2.36996,12.7212 -1.80431,4.0772 -7.1002,1.627 -8.6683,-0.067 z m 81.10195,-70.8353 c -5.54736,-6.3665 -4.10197,-20.5188 2.29613,-22.4823 11.4413,-3.5114 17.22013,15.9973 6.93306,23.405 -3.78053,2.7222 -6.26984,2.4736 -9.22919,-0.9227 z m 25.44527,0.8946 c -5.99787,-8.3288 -0.0814,-25.2049 8.07852,-23.0439 4.44828,1.1781 6.00774,5.2979 5.39264,14.2466 -0.9614,13.9865 -6.92843,17.8832 -13.47116,8.7973 z m -55.59773,-79.4892 c 3.98861,-1.8327 13.74728,-9.2904 21.68597,-16.5728 14.75027,-11.2636 14.48994,-13.084 8.68025,-29.4333 -8.31622,-23.4031 -23.969,-22.0679 -42.78807,3.6496 -14.35176,19.6128 -13.05879,20.3639 7.70397,4.4764 10.01386,-7.6628 20.37169,-13.7836 23.01728,-13.6017 7.93844,0.5457 9.41539,7.9469 2.02264,10.136 -18.13815,5.3713 -54.61692,38.7156 -50.63112,46.2803 1.69762,3.2216 18.51957,0.4832 30.30908,-4.9345 z m 76.32114,-30.7673 c 4.40235,-5.8443 4.51932,-8.3251 0.67606,-14.3303 -4.44605,-6.9474 -5.08473,-6.8298 -14.70694,2.7058 -5.5324,5.483 -10.2622,12.1567 -10.51069,14.8308 -0.69641,7.4946 18.35569,5.0053 24.54126,-3.2063 z m -62.23407,-39.8242 c 2.91345,0.063 9.45004,0.6369 0.002,-3.907 -12.9099,-6.2093 -24.96567,-2.7583 -32.24826,9.2307 -11.714,19.2838 -8.03969,23.0468 8.08023,8.2766 9.22599,-8.4535 15.54553,-12.3236 20.88296,-13.1141 z m 51.19152,6.3346 c 0.13623,-2.4318 -1.01212,-6.7473 -2.55127,-9.5894 -3.94829,-7.291 -21.90464,18.0534 -19.11978,26.9864 1.78498,5.7261 3.26148,5.322 11.73287,-3.2122 5.33017,-5.3695 9.80221,-11.7526 9.93818,-14.1848 z m 53.99116,-15.5955 c 3.67425,-5.8804 12.15941,-15.2278 18.85574,-20.7717 12.85835,-10.6456 15.62906,-15.8651 7.85351,-14.7946 -11.27232,1.5521 -18.03509,5.9937 -27.60023,18.1272 -10.01927,12.7095 -13.17576,23.9397 -12.9917,46.2204 0.0833,10.0953 0.4304,9.7654 3.64733,-3.4663 1.9553,-8.0427 6.56111,-19.4345 10.23535,-25.315 z m -72.32534,3.5769 c 6.08833,-8.2968 7.47949,-13.1694 5.20387,-18.2272 -4.26023,-9.4695 -8.16837,-8.9528 -14.01734,1.8521 -4.08826,7.5525 -4.5052,27.3545 -0.58192,27.6242 0.59708,0.041 4.82507,-5.0211 9.39539,-11.2491 z m 153.09149,11.2811 c 6.94136,-3.6039 15.53423,-6.3586 19.09537,-6.1214 7.72674,0.5028 8.73807,-4.3307 2.20533,-10.5565 -3.48722,-3.3234 -8.06732,-3.6296 -17.57488,-1.175 -16.79039,4.3348 -23.44425,9.9817 -21.02995,17.8479 2.43017,7.9186 2.06252,7.9184 17.30415,0 z m -161.20103,-48.0451 c 0.28291,-5.8598 -7.02459,-19.2865 -10.63137,-19.5344 -5.06804,-0.3484 -7.06152,12.8688 -3.71009,24.597 3.3657,11.777 4.20064,12.4209 8.88857,6.8553 2.84572,-3.3785 5.29955,-8.7418 5.45289,-11.9179 z m -16.5363,-28.0842 c 0.35016,-5.0942 -13.12195,-30.7958 -15.19527,-28.989 -2.87345,2.5038 8.65162,36.2627 11.81128,34.5979 1.71122,-0.9018 3.23393,-3.4258 3.38399,-5.6089 z" fill="#181C52" transform="translate(-34.794642,46.772588) matrix(0.28257857,0,0,0.28257857,-54.213822,624.13303)"/>
</svg>