<?xml version="1.0" ?><svg height="182.0658mm" viewBox="0 0 201.98459 182.0658" width="201.98459mm" xmlns="http://www.w3.org/2000/svg">
    <path color="#000" d="m 1364.897,7245.4432 c -8.4587,0 -15.2702,6.8115 -15.2702,15.2703 v 360.9853 c 0,8.4587 6.8115,15.2656 15.2702,15.2656 h 199.9103 v 74.0887 h -43.8551 c -6.7851,0 -12.2473,5.4622 -12.2473,12.2474 0,6.7851 5.4622,12.2473 12.2473,12.2473 h 206.0248 c 6.7851,0 12.2473,-5.4622 12.2473,-12.2473 0,-6.7852 -5.4622,-12.2474 -12.2473,-12.2474 h -30.2978 v -74.0887 h 208.3606 c 8.4588,0 15.2702,-6.8069 15.2702,-15.2656 v -360.9853 c 0,-8.4588 -6.8114,-15.2703 -15.2702,-15.2703 z m -9.9023,531.1978 -78.023,121.9651 c 43.9931,20.196 552.578,13.2 552.578,13.2 l 38.3267,-123.3758 z m 618.8529,17.9084 c -19.5202,-0.4239 -30.1193,5.0579 -55.7543,37.4703 -31.5506,39.8922 -32.3279,75.1851 23.8856,80.6841 0,0 45.2148,-4.7972 68.7665,-40.6902 23.5519,-35.8929 8.9977,-73.9891 -21.6642,-76.4886 -5.7491,-0.4687 -10.729,-0.8778 -15.2336,-0.9756 z" fill="none" overflow="visible" paint-order="fill markers stroke" transform="translate(55.862298,114.92528) matrix(0.26458333,0,0,0.26458333,-391.89444,-2029.2516)"/>
    <path d="m 1756.2201,7236.7466 c -58.4234,0.3772 -104.608,2.3908 -161.0601,-0.5187 -22.6933,-1.1696 -227.5101,-1.6406 -235.7958,0.6046 -27.6755,-1.4783 -23.1497,31.7201 -19.8779,89.8948 0.1546,36.5614 0.2994,85.4713 0.3252,108.6872 0.025,23.2159 0.9431,51.1805 2.0382,62.1436 1.0951,10.9631 2.088,43.4097 2.2076,72.1009 -0.7888,20.2457 -1.2108,32.3357 -0.8613,58.3559 -2.4999,26.0453 48.4132,17.3531 71.1622,16.8549 24.8991,-0.6173 139.1181,2.7485 140.5101,4.1405 1.7109,1.711 -4.3784,36.7018 -6.9206,39.7649 -7.5525,9.1002 -20.9281,15.3152 -35.9955,16.7222 -16.3299,1.5249 -22.5527,5.741 -22.5527,15.2885 0,7.3975 9.6141,23.0016 14.171,23.0016 2.3732,0 4.8016,0.7915 5.4,1.7588 0.5985,0.9673 10.4255,2.1544 21.8336,2.6382 11.4082,0.4837 34.9851,1.6337 52.3971,2.5557 41.4226,2.1933 161.5821,2.0926 167.9132,-0.1421 5.6952,-2.0102 15.8804,-17.9612 13.9237,-21.8061 -8.4806,-16.6659 -19.9619,-25.4789 -36.6642,-28.1497 -21.5959,-3.4534 -24.6436,-8.0924 -25.3649,-38.5741 l -0.4626,-19.5756 35.8855,1.7038 c 19.7394,0.9369 39.056,1.99 42.9253,2.3404 3.8693,0.3505 34.3001,0.8025 67.6215,1.0077 69.1774,0.4258 69.5177,0.3489 73.9512,-17.258 1.4717,-5.8454 3.208,-24.6477 3.8567,-41.7803 0.6486,-17.1326 1.7862,-45.9234 2.5281,-63.9802 0.7418,-18.0568 1.7234,-61.3229 2.1802,-96.1467 0.4571,-34.8239 1.3916,-78.9456 2.0794,-98.0475 7.2668,-99.7788 -6.3694,-94.6892 -101.6783,-94.0738 z m -174.7731,15.7913 c 221.2289,-0.1234 317.0887,2.2747 324.1104,8.1023 11.607,2.2634 12.5771,40.4332 11.89,54.2474 -2.0059,39.7394 -3.1412,71.7436 -4.6488,131.0796 -2.6761,105.3172 -4.9837,158.859 -7.4474,172.7224 -1.1776,6.6271 -2.2801,7.4876 -10.5984,8.2809 -5.1058,0.4869 -9.491,0.7322 -9.7466,0.5451 -0.2553,-0.1872 -32.0733,-1.049 -70.7039,-1.9145 -38.6308,-0.8656 -70.727,-2.0658 -71.3268,-2.6657 -0.5999,-0.5999 4.0967,-1.125 10.4382,-1.1679 6.3412,-0.043 39.4928,-0.3068 73.6718,-0.5863 l 62.1436,-0.5084 0.8107,-5.8626 c 0.446,-3.2244 1.7518,-7.0052 2.8993,-8.4046 2.8161,-3.4344 4.4578,-108.995 2.5328,-162.7834 -2.0995,-58.6544 3.0075,-134.6194 3.5542,-150.2613 -0.9542,-14.9617 -7.1161,-17.7458 -17.9036,-17.8676 -12.7812,1.5844 -8.8672,-0.2471 -41.7072,-0.7096 -37.432,-0.5272 -42.5635,-0.6966 -99.0963,-3.2885 -17.412,-0.7984 -77.0346,-1.8957 -132.4949,-2.4367 -55.4602,-0.541 -102.4197,-1.5369 -104.3544,-2.2122 -1.9346,-0.6754 -25.6782,-1.8046 -52.7634,-2.5099 -27.0852,-0.7054 -51.9468,-1.6434 -55.2505,-2.084 -16.2475,0.014 -23.0515,-1.028 -26.3771,12.7557 l 1.5893,80.2032 c 2.2923,115.803 3.6798,161.8259 5.6015,185.7301 0.9331,11.608 1.6769,31.3942 1.6535,43.9695 -0.024,12.5753 0.7113,22.8642 1.6305,22.8642 0.9195,0 4.641,1.3191 8.2718,2.9313 4.9469,2.1966 32.1682,2.9438 108.6093,2.9771 86.3932,0.038 117.1192,0.9033 164.153,4.6214 3.2244,0.2549 13.2494,0.749 22.2779,1.0992 27.4283,1.0639 4.8623,3.8491 -40.2825,4.9741 -61.9671,1.5442 -272.7173,0.6588 -274.5302,-1.1542 -0.8982,-0.8981 -2.428,-26.6398 -3.4031,-57.2017 -0.9753,-30.5619 -2.7579,-61.3704 -3.9619,-68.4642 -1.2039,-7.0937 -2.3384,-35.586 -2.5236,-63.3161 -0.1841,-27.7301 -0.5435,-78.0796 -0.797,-111.8887 -0.4188,-55.8176 -0.085,-61.85 3.6458,-65.5834 3.8553,-3.8574 17.4762,-4.1188 220.434,-4.232 z m -193.6492,28.5619 30.284,1.5206 c 77.7067,3.9002 152.704,6.5166 208.5026,7.2778 103.8795,1.4172 254.1787,6.749 255.834,9.0733 0.1696,0.2382 -0.806,12.5662 -2.1664,27.3986 -2.5633,27.9483 -3.5184,114.9958 -1.7129,155.9452 1.0512,23.8439 -1.9705,113.9392 -3.8932,116.0796 -2.1785,2.4253 -211.449,-0.9996 -264.4767,-4.3282 -19.3466,-1.2149 -61.5574,-1.7547 -93.8017,-1.2046 -101.1302,1.7253 -113.645,1.7116 -115.4704,-0.1145 -0.9781,-0.9782 -1.8641,-6.705 -1.9649,-12.7236 -0.1001,-6.0186 -1.4046,-27.8263 -2.9039,-48.4627 -2.9784,-41.0026 -4.0947,-71.3873 -6.5816,-179.1667 z m 345.2937,341.0341 c 0.8147,0.034 1.5157,0.2516 1.9053,0.6412 0.7793,0.7792 -0.6057,1.3338 -3.0778,1.2321 -2.732,-0.1126 -3.2905,-0.6713 -1.4199,-1.4199 0.8465,-0.3387 1.7777,-0.487 2.5924,-0.4534 z m -81.8933,23.1619 h 32.0978 l -0.087,13.4839 c -0.046,7.4162 0.6945,18.3605 1.6443,24.3207 l 1.7267,10.8366 -53.5787,-0.2839 c -29.4707,-0.1562 -55.3953,-0.6304 -57.6093,-1.0535 -4.1824,-0.799 -4.1874,-1.6767 -0.2014,-34.6489 l 1.1633,-9.6183 21.371,-1.5206 c 11.7555,-0.8345 35.8195,-1.516 53.4734,-1.516 z m -72.2566,70.9329 c 11.198,-0.1027 27.6304,0.1254 52.8459,0.5359 67.548,1.0993 89.7711,3.2352 89.7711,8.6336 0,1.8635 -133.7788,2.0443 -166.4659,0.2244 l -15.2153,-0.8473 10.2459,-4.5894 c 6.0289,-2.6992 10.1551,-3.7861 28.8183,-3.9572 z m -233.3904,59.0121 c -24.4605,25.3994 -26.8614,42.9723 -49.7917,71.7286 -1.6251,1.9346 -7.3496,11.2857 -12.7191,20.7801 -31.6072,44.6901 1.565,43.8426 24.0457,49.9937 27.7995,-0.6327 110.4666,-2.5694 128.6738,-1.2779 64.6378,4.5844 138.8654,2.0855 255.401,3.7435 80.4036,1.1439 95.8419,2.4233 123.4471,2.1542 21.4442,-0.016 25.3539,-2.8659 30.1237,-11.3863 10.9368,-28.2224 15.0473,-55.8637 23.3921,-81.4303 11.9805,-36.5735 10.5871,-46.3412 -7.7772,-54.4764 -7.7123,-3.4166 -22.6964,-3.7585 -139.9605,-3.174 -308.32,1.5366 -346.5095,-1.3302 -354.6326,-1.7817 -9.3417,-0.1414 -17.1786,-0.3293 -20.2023,5.1265 z m 630.5591,8.6277 c -16.5731,-0.4048 -35.5084,5.2326 -45.4903,14.6519 -24.3075,22.9378 -46.2806,64.2224 -44.2214,83.0841 1.3606,12.4643 10.9391,27.2913 20.9954,32.5054 4.1974,2.1762 12.9069,5.2017 19.3557,6.7191 32.9737,7.7586 69.0399,-2.7239 85.3696,-24.8107 9.8131,-13.2732 21.3298,-44.5061 21.3298,-57.8475 0,-23.5211 -15.6421,-42.8292 -41.9725,-51.8016 -4.581,-1.561 -9.8421,-2.3658 -15.3663,-2.5007 z m -446.4191,7.0672 c 4.7993,-1.2507 5.8004,-1.8234 9.0579,-0.4236 4.188,1.7996 2.8307,6.179 -2.8042,6.3262 -3.4707,0.091 -10.4481,0.1743 -11.2451,-1.1156 -0.8651,-1.3998 -0.22,-3.4289 4.9914,-4.787 z m 27.6831,-0.1822 c 0,1.2493 -1.2093,4.793 -3.144,4.793 -1.9347,0 -3.6183,4.0444 -7.9688,-0.2483 -1.8472,-1.8227 0.9292,-3.0701 2.8638,-3.8125 3.3399,-1.6174 4.2899,-0.7466 8.249,-0.7322 z m 290.4868,1.1623 c 2.7352,-0.041 4.5682,0.052 4.8413,0.2885 0.5461,0.4734 -0.5347,5.7862 -2.4046,11.8077 -3.6845,11.8642 -4.0064,12.0817 -16.1771,10.8595 -18.8164,-1.8894 -18.8881,-1.9527 -14.5054,-12.2153 3.821,-8.9473 4.1923,-9.1639 17.9954,-10.2275 3.8767,-0.2987 7.5153,-0.472 10.2504,-0.5129 z m -46.855,1.2046 c 1.6018,0.1683 1.0344,3.2882 -2.3405,9.2931 -3.7799,6.7256 -6.8098,9.3802 -10.7038,9.3802 -2.9869,0 -5.4321,-0.3966 -5.4321,-0.8794 0,-0.4828 3.0096,-11.8194 7.2929,-16.4957 5.3135,-5.801 9.5817,-1.4667 11.1835,-1.2982 z m -203.927,0.2014 c 0.8146,0.034 1.5157,0.2516 1.9053,0.6412 0.7793,0.7793 -0.6057,1.3339 -3.0779,1.2321 -2.7319,-0.1126 -3.2905,-0.6713 -1.4198,-1.4199 0.8464,-0.3387 1.7777,-0.4869 2.5924,-0.4534 z m -18.8474,0.014 c 1.2751,0.016 2.4626,0.1827 3.2565,0.5038 1.5876,0.6424 -0.2803,1.1287 -4.1496,1.0809 -3.8694,-0.048 -5.1673,-0.5734 -2.8855,-1.1679 1.1407,-0.2972 2.5035,-0.4326 3.7786,-0.4168 z m 47.1802,0 c 1.0626,0 2.1252,0.1601 2.9313,0.4855 1.6122,0.6505 0.2932,1.1816 -2.9313,1.1816 -3.2244,0 -4.5435,-0.5311 -2.9313,-1.1816 0.8061,-0.3253 1.8687,-0.4855 2.9313,-0.4855 z m -265.6538,2.7297 c 0.8856,-0.08 1.3727,0.7714 2.0381,2.5054 0.8098,2.1102 3.9992,3.8382 7.0855,3.8382 5.8303,0 7.4114,4.2954 3.1512,8.5557 -1.369,1.3678 -7.4688,1.9789 -13.7634,1.374 -11.8191,-2.3867 -11.7228,13.4478 -5.7756,15.9711 5.4232,2.0619 5.5511,2.5368 2.3817,8.6656 -6.0211,11.6436 -11.7258,15.1713 -21.5496,13.3283 -3.4598,-0.7791 -13.845,6.4407 -12.5174,16.1255 0.8184,5.9711 5.7082,6.5122 4.5113,9.6608 -1.3583,3.5725 -3.022,9.1542 0.774,9.2061 l 14.4046,0.197 c 11.8099,0.1613 12.6098,-12.7328 18.0183,-12.7328 3.6281,0 6.5955,0.5478 6.5955,1.2183 0,0.6705 -2.6495,5.4192 -5.8901,10.5527 -5.3101,8.4116 -6.8453,9.3343 -15.5313,9.3343 -2.4626,0 -4.2217,-0.038 -5.5008,-0.1604 l -5.7298,-0.046 0.1649,0.2061 -13.658,-0.037 c -19.4439,-0.051 -21.4817,-1.8734 -15.9115,-14.226 2.4625,-5.4607 7.4062,-13.9718 10.9878,-18.9161 3.5816,-4.9442 6.513,-9.5021 6.513,-10.1267 0,-2.6843 30.2415,-47.3839 34.7771,-51.4031 2.2556,-1.9989 3.5388,-3.0113 4.4244,-3.0916 z m 600.0558,8.6886 c 3.5628,0 3.5602,0.4015 -0.049,5.2763 -2.1492,2.902 -5.149,8.1784 -6.6641,11.7253 -2.2064,5.1648 -4.2858,6.4488 -10.4474,6.4488 -4.2316,0 -7.6948,-0.9218 -7.6948,-2.0473 0,-3.5017 20.79,-21.4031 24.8565,-21.4031 z m 37.8689,2.4092 c 3.8189,-0.012 7.5023,1.9466 11.377,5.8213 4.9128,4.9129 5.7671,7.7128 5.171,16.9787 -0.4995,7.7664 -1.8045,11.3029 -4.3465,11.7848 -1.9975,0.3786 -4.3344,-0.016 -5.1938,-0.8749 -0.8595,-0.8594 -8.1364,-3.3605 -16.1726,-5.5603 -8.0362,-2.1997 -14.9328,-4.9644 -15.3253,-6.142 -0.3926,-1.1775 3.3851,-6.6242 8.3955,-12.1053 6.0525,-6.6214 11.1847,-9.8881 16.0947,-9.9023 z m -591.1246,0.174 c 2.3626,0.069 3.142,0.8696 2.6015,2.5145 -0.5626,1.7114 -3.9602,3.4577 -7.5481,3.8794 -4.5977,0.5403 -6.2217,-0.152 -5.5008,-2.3451 0.5623,-1.7114 3.9602,-3.4577 7.5481,-3.8794 1.1495,-0.135 2.1117,-0.1925 2.8993,-0.1695 z m 67.31,0.032 c 0.8507,-0.053 1.907,0.01 3.2198,0.1604 3.8393,0.4417 6.4489,2.1654 6.4489,4.2595 0,2.0941 -2.6096,3.8178 -6.4489,4.2596 -5.2512,0.6042 -6.4488,-0.1867 -6.4488,-4.2596 0,-3.0547 0.6768,-4.2614 3.229,-4.4198 z m 285.4539,0.2748 c 1.3855,-0.051 2.1023,0.866 2.1023,2.7206 0,2.0727 -1.5829,3.7695 -3.5176,3.7695 -1.9347,0 -3.5176,1.0553 -3.5176,2.345 0,1.2898 -1.5829,2.3451 -3.5175,2.3451 -1.9542,0 -3.5176,-2.0845 -3.5176,-4.6901 0,-2.5796 1.4961,-4.6901 3.3252,-4.6901 1.8294,0 4.9952,-0.6415 7.0351,-1.4244 0.6086,-0.2336 1.1458,-0.3585 1.6077,-0.3756 z m -316.4708,0.6412 c 2.5593,0.069 5.4837,0.398 8.7298,0.9985 0.4803,0.089 -0.4417,1.7432 -2.0473,3.6779 -3.0955,3.7299 -18.7603,4.9501 -18.7603,1.461 0,-4.2067 4.4001,-6.3445 12.0778,-6.1374 z m 78.4582,1.1588 c 15.0626,0 18.8264,2.4734 10.5252,6.9161 -3.9957,2.1385 -19.7048,2.4762 -25.7726,0.5541 -1.2811,-0.4057 -1.7456,-2.2524 -1.0351,-4.1038 0.9359,-2.439 5.4195,-3.3664 16.2825,-3.3664 z m 203.556,0.1466 c 3.5368,-0.01 3.2856,0.9895 1.4474,4.4244 -1.8761,3.5051 -4.5733,4.7173 -9.6184,4.3328 -10.6155,-0.8088 -8.0026,-7.5369 3.2886,-8.4687 2.1008,-0.1733 3.7035,-0.2857 4.8824,-0.2885 z m -143.7071,0.4717 c 9.4894,-0.101 11.2282,1.7163 6.1329,5.9451 -3.4304,2.8469 -29.8856,3.1142 -29.8856,0.3023 0,-3.5752 5.5884,-5.3492 19.2046,-6.0916 1.6745,-0.091 3.1925,-0.1412 4.5481,-0.1557 z m 99.0231,0.4989 c 4.45,0.1982 6.2015,1.0643 6.2015,2.8351 0,1.7759 -1.3191,3.7065 -2.9313,4.2871 -5.3235,1.9172 -25.4427,2.6576 -26.4825,0.9755 -2.2181,-3.5893 6.8445,-7.6974 17.8306,-8.0839 2.1181,-0.075 3.8983,-0.08 5.3817,-0.014 z m -59.2948,0.064 c 0.7198,-0.024 1.4502,0 2.1802,0.087 3.2244,0.3762 7.2431,0.7719 8.9313,0.8793 1.6891,0.1075 2.4234,1.2455 1.6305,2.5283 -3.4748,5.6225 -22.287,7.726 -22.287,2.4916 0,-3.1658 4.5064,-5.8268 9.545,-5.9863 z m -193.6308,19.9237 c 3.0722,0 6.238,1.0552 7.0351,2.345 0.8642,1.3983 -1.9759,2.345 -7.0351,2.345 -5.0592,0 -7.8993,-0.9467 -7.0351,-2.345 0.797,-1.2898 3.9628,-2.345 7.0351,-2.345 z m 359.0845,0 c 6.2934,0 6.9213,1.9444 2.5558,7.9145 -3.4358,4.6987 -21.3915,7.9566 -23.6566,4.2916 -4.1319,-6.6857 5.4094,-12.2061 21.1008,-12.2061 z m 26.5466,1.3236 c 0.6886,-0.029 1.4597,0.079 2.3313,0.3069 5.5665,1.4557 5.6713,1.8018 2.4046,7.9053 -2.4252,4.532 -8.0974,6.0976 -10.0534,2.7756 -0.5696,-0.9673 -0.1712,-4.0501 0.8885,-6.8519 1.0425,-2.7561 2.3633,-4.0481 4.429,-4.1359 z m -346.97,1.3191 c 3.3254,-0.1534 4.7222,0.7863 4.7222,3.0641 0,2.5402 -2.2274,3.6733 -7.2275,3.6733 -8.9722,0 -8.1677,-5.5238 0.9618,-6.6046 0.5553,-0.066 1.0685,-0.1109 1.5435,-0.1327 z m 41.1344,2.0473 c 10.3126,0 12.4332,0.658 11.3359,3.5176 -0.9173,2.3901 -4.4641,3.4601 -11.0656,3.3344 -20.0968,-0.383 -20.3523,-6.852 -0.2703,-6.852 z m 46.2551,1.4657 c 2.6423,-0.021 5.7019,0.1194 9.2153,0.4122 8.2355,0.6866 10.6671,1.7383 9.719,4.2092 -0.9155,2.3859 -5.6996,3.2931 -17.3542,3.2931 -12.8081,0 -15.8353,-0.6685 -14.8351,-3.2748 1.1838,-3.0851 5.3279,-4.5791 13.255,-4.6397 z m 50.7161,0.8199 c 2.8424,0.2784 5.0048,1.7279 4.5435,4.1633 -0.5121,2.7028 -3.3748,4.3573 -8.3817,4.8412 -7.9272,0.7663 -9.5727,-1.3418 -4.7863,-6.1282 2.2594,-2.2593 5.782,-3.1548 8.6245,-2.8763 z m 135.2201,0.06 c 5.4681,0 5.4728,0.029 1.887,10.5527 -1.9776,5.804 -4.2883,10.4077 -5.1344,10.2321 -0.8461,-0.1757 -3.8619,-0.7684 -6.7008,-1.3191 l -5.1618,-1.0031 4.8137,-9.229 c 3.5141,-6.742 6.2916,-9.2336 10.2963,-9.2336 z m -26.6428,0.019 -4.4291,7.6122 c -3.7255,6.4015 -5.9977,7.7295 -14.2809,8.3359 -11.1976,0.8197 -11.6105,0.129 -5.2764,-8.7664 3.61,-5.0699 6.6165,-6.5012 14.281,-6.8016 z m -59.6337,0.7649 c 12.4317,0.3948 15.3867,3.1259 9.0595,8.3771 -3.4108,2.8306 -29.5786,3.0251 -29.5786,0.2197 0,-5.1449 9.1102,-8.9594 20.5191,-8.597 z m 266.7484,8.0061 22.7223,1.4702 c 33.5819,2.1731 62.8717,8.7226 62.8717,14.0565 0,5.6456 -15.6541,25.8843 -25.4336,32.881 -9.3738,6.7065 -11.8232,7.3239 -30.4855,7.6672 -26.1057,0.4801 -30.566,-0.5549 -38.5971,-8.9588 -7.7407,-8.1 -7.2755,-13.8236 2.7895,-34.5069 z m -543.6145,2.0336 c 4.0011,-0.1923 7.8852,1.1666 6.4351,3.513 -0.7065,1.1431 -4.6144,2.0794 -8.684,2.0794 -6.5103,0 -6.9816,-0.4154 -3.9481,-3.4489 1.3553,-1.3553 3.7963,-2.0282 6.197,-2.1435 z m 39.7649,0.9023 c 5.5615,0 7.9485,0.9587 7.3008,2.9313 -1.0503,3.2002 -13.8495,5.314 -16.4473,2.716 -3.1199,-3.1197 0.9724,-5.6473 9.1465,-5.6473 z m 55.7589,2.4346 c 8.263,0.2995 0.516,4.528 -1.3861,6.43 -1.6141,1.6142 -13.4355,1.093 -22.3971,0.208 -10.4732,-1.0342 -7.7604,-7.2449 3.3982,-7.754 4.0015,-0.1827 7.6887,0.6558 20.385,1.116 z m 18.6844,2.6176 c 3.1692,-0.1712 14.9944,-1.5799 24.5957,-0.1723 7.4201,3.64 1.9808,5.6592 -4.965,5.6271 -11.4928,-0.053 -23.5696,-1.1183 -23.5696,-2.3541 0,-1.9261 0.7698,-2.9297 3.9389,-3.1008 z m 47.3928,0.8912 c 2.3377,0 15.6012,0 17.3747,0.263 3.5468,0.5373 5.5942,6.0226 -1.4996,6.0226 -7.0937,0 -18.5981,0.5753 -21.857,-0.9241 -3.8486,-1.7707 3.6442,-5.3615 5.9819,-5.3615 z m 292.4806,5.8459 c 0.9954,0.014 1.5327,0.9393 1.4153,2.8672 -0.098,1.6122 -1.4171,6.284 -2.9313,10.3832 -2.4883,6.7371 -3.1698,7.148 -7.113,4.2458 -4.2248,-3.1094 -4.2008,-3.4399 0.7466,-10.3878 3.2945,-4.6267 6.2234,-7.1326 7.8824,-7.1084 z m -70.768,0.2702 c 3.996,-0.083 11.4368,3.0479 10.7221,5.2214 -1.4157,4.3037 -10.9096,4.5852 -12.5267,0.371 -0.7985,-2.0808 -0.9178,-4.3174 -0.2657,-4.9695 0.4126,-0.4126 1.1481,-0.6038 2.0703,-0.6229 z m -126.4628,2.0886 c 0.6201,-0.01 1.9902,0.4113 4.1862,1.0763 3.2245,0.9765 6.3204,2.187 6.8794,2.6931 0.5589,0.5062 -0.048,1.9853 -1.3465,3.284 -1.585,1.5851 -9.4766,4.0307 -12.5089,0.6359 -2.8203,-3.1571 1.7563,-7.6772 2.7898,-7.6893 z m 166.9422,0.1648 c 0.4827,-0.044 0.9401,0 1.3557,0.1328 1.5206,0.5068 1.051,2.8342 -1.2274,6.087 -4.1425,5.9143 -8.1115,6.9093 -8.1115,2.0336 0,-3.4995 4.6047,-7.9409 7.9832,-8.2535 z m -124.1223,5.8993 c 1.3458,-0.01 2.7403,0.066 4.1634,0.2291 10.3714,1.1873 13.7472,3.4663 9.2473,6.2474 -4.2072,2.6002 -25.7144,4.2129 -27.0642,2.029 -2.7692,-4.4808 4.2329,-8.4551 13.6535,-8.5054 z m 46.5985,2.8443 c 5.6305,0.2009 10.9146,1.2532 10.9146,2.9771 0,1.1599 -5.9302,2.1068 -13.1817,2.1068 -10.355,0 -12.6574,-0.637 -10.7268,-2.9633 1.3896,-1.6743 7.3635,-2.3215 12.9939,-2.1206 z m -322.8142,2.7389 c 8.6229,0 9.0746,0.9419 4.8366,10.0672 -2.5776,5.5504 -4.275,6.3134 -14.0702,6.3298 -6.1264,0.01 -11.139,-0.7155 -11.139,-1.6123 0,-0.8967 2.8366,-4.5901 6.3023,-8.2076 4.4211,-4.6146 8.6195,-6.5771 14.0703,-6.5771 z m 75.9894,2.2535 c 50.6764,4.2512 88.5064,-1.2917 138.0192,4.616 6.1402,-0.6481 2.0502,16.3577 -3.4748,15.5164 -47.7003,-1.1441 -115.8854,3.0307 -166.8803,-5.1645 -0.5834,-1.5206 1.8016,-8.2207 3.6276,-11.706 0.9099,-6.046 18.2238,-3.445 28.7083,-3.2619 z m 168.7148,6.0595 c 1.3194,0.1252 2.258,1.6351 2.258,4.6351 0,4.8677 16.9749,8.5874 31.1085,6.8199 14.0787,-1.7604 67.7288,-3.1007 70.2138,-1.7542 0.9108,0.4936 1.048,2.4857 0.3023,4.429 -1.165,3.0358 -9.1073,3.4397 -56.3955,2.858 -30.2696,-0.3723 -55.3693,-1.2156 -55.7818,-1.8733 -0.4127,-0.6576 0.7192,-4.6888 2.5145,-8.9588 1.7621,-4.1906 4.0838,-6.3167 5.7802,-6.1557 z m 135.4262,8.2351 c 25.1724,0.8414 19.2549,2.3374 33.5817,2.2122 9.5675,0 11.4167,2.2185 5.7618,6.9115 -2.2264,1.8479 -10.6458,2.5423 -24.8473,2.0473 -24.2475,-0.8451 -28.1003,-2.0934 -23.5237,-7.6076 2.0161,-2.4293 5.548,-3.6091 9.0275,-3.5634 z" fill="#181C52" transform="translate(55.862298,114.92528) matrix(0.26458333,0,0,0.26458333,-391.89444,-2029.2516)"/>
</svg>