<?xml version="1.0" ?><svg height="117.75961mm" viewBox="0 0 148.84998 117.75961" width="148.84998mm" xmlns="http://www.w3.org/2000/svg">
    <path color="#000" d="m 1594.6097,679.17432 88.2502,59.10847 284.1002,-29.02407 59.7075,-137.46666 -25.6028,-31.47561 -22.0279,-24.86745 c 12.9532,-2.63072 -22.8628,-35.7391 -42.1238,-62.34256 l 44.9256,-104.25206 c 0,0 -63.3789,-48.34375 -124.5355,-47.12646 -61.1567,1.21729 -293.9756,36.91067 -313.126,44.51797 -88.9616,35.33908 -16.8063,172.97411 40.288,198.15722 z" fill="none" overflow="visible" paint-order="fill markers stroke" transform="translate(10.712038,9.7677462) matrix(0.26458333,0,0,0.26458333,-406.49624,-88.925861)"/>
    <path d="m 1673.7782,741.84772 c -3.2966,-2.7738 -3.912,-4.118 -3.2959,-7.1984 -5.9701,-6.2368 -26.9507,-19.98014 -39.1323,-26.61411 -12.1675,-3.3859 -23.4321,-11.53148 -26.5277,-16.83688 -2.9279,-5.0184 9.8355,-9.9195 13.7013,-5.2615 13.7801,7.61438 37.0293,22.26243 51.1106,29.33316 6.5617,3.0844 8.9017,-1.82927 10.1746,-5.64787 5.5438,-18.14295 25.1398,-75.70591 10.061,-86.59919 -22.0318,-15.54497 -45.1356,-31.51561 -65.9108,-47.941 -17.1762,-13.6376 -31.5694,-21.0316 -30.28,-15.5552 0.4749,2.0166 1.4248,8.4666 2.1109,14.3333 0.6863,5.8667 2.198,17.5667 3.3595,26 4.6832,34.0016 7.1378,58.5172 6.5485,65.4017 -0.342,3.9958 -0.7432,9.8648 -0.8915,13.0424 -0.3064,6.5679 -3.2457,9.2623 -7.5758,6.9448 -5.64,-3.0184 -6.2344,-4.593 -5.3587,-14.1972 0.7892,-8.654 -1.6089,-46.9012 -3.0961,-49.3813 -0.3772,-0.6291 -1.0824,-7.1437 -1.5671,-14.4771 -0.4847,-7.3333 -1.4199,-15.1333 -2.0783,-17.3333 -0.6585,-2.2 -1.5366,-7 -1.9516,-10.6667 -0.4149,-3.6666 -1.3268,-10.8666 -2.0264,-16 -3.2417,-23.7876 4.3354,-32.4481 17.5983,-20.1148 6.537,3.39431 12.5528,10.67131 20.3631,11.4482 26.2782,13.46007 44.0361,33.73636 68.7872,49.0512 9.246,5.5917 14.1512,1.5514 8.4302,-6.9439 -2.4958,-3.7061 -4.538,-7.2961 -4.538,-7.9777 0,-0.6816 -0.9126,-2.1896 -2.028,-3.3511 -18.2714,-19.0265 -18.8009,-21.9756 -7.1034,-39.5633 5.2444,-7.8851 9.5944,-15.8843 9.6666,-17.7759 0.2812,-7.3593 7.9191,-5.5496 17.9979,4.2643 4.8401,4.7129 11.6503,10.5593 15.1336,12.992 7.2395,5.056 8.2656,9.366 3.5155,14.767 -1.5498,1.7622 -4.3998,5.302 -6.3334,7.8663 -1.9334,2.5643 -4.5542,5.5643 -5.8238,6.6667 -3.4691,3.012 -9.0486,14.3665 -10.2686,20.8966 -1.1524,6.1684 3.4938,8.5107 8.1484,4.1078 0.9691,-0.9167 5.3619,-1.792 9.7619,-1.9451 4.4,-0.1531 13.4,-1.1732 20,-2.2669 11.2852,-1.8702 38.9453,-5.2658 55.3333,-6.793 4.0334,-0.3757 14.2334,-1.5361 22.6667,-2.5784 8.4333,-1.0424 20.1333,-2.2816 26,-2.7537 5.8667,-0.4723 19.0667,-2.0812 29.3333,-3.5756 10.2667,-1.4943 21.0667,-2.9105 24,-3.1473 2.9334,-0.2367 13.4334,-1.0666 23.3334,-1.8442 21.9932,-1.7273 49.8593,-4.8798 66.1652,-7.4853 6.6908,-1.0692 14.3408,-1.9439 17,-1.9439 5.7392,0 5.9765,-1.1052 1.4037,-6.5396 -2.5057,-2.978 -3.1809,-4.8932 -2.5035,-7.1022 2.4535,-8.0007 6.7966,-8.3539 12.6012,-1.0248 2.3232,2.9333 5.001,5.3333 5.9503,5.3333 0.9495,0 2.4487,1.95 3.3317,4.3333 0.8831,2.3834 2.4607,6.3138 3.5058,8.7344 2.1278,4.9278 0.9874,8.5551 -3.4334,10.9211 -2.4377,1.3045 -12.021,19.4887 -12.021,22.8096 0,0.8476 -1.7531,5.2147 -3.8956,9.7047 -2.1426,4.49 -6.3968,14.1636 -9.454,21.4969 -8.7002,20.8689 -14.7986,34.0207 -19.5794,42.2244 -3.8996,8.06372 -8.9067,17.29173 -8.5826,26.2091 0.091,1.7049 -0.5608,4.4049 -1.4479,6 -0.8869,1.5949 -1.634,3.4661 -1.66,4.1581 -0.027,0.6991 -7.1572,1.3897 -16.0472,1.5541 -8.8,0.1628 -29.9776,5.69349 -57.8149,7.46509 -70.0564,6.2275 -119.4625,8.26591 -187.0179,19.0292 -2.9333,0.3431 -10.8964,1.0325 -17.6957,1.5321 -10.3067,0.2816 -13.962,4.97545 -20.1532,-0.1844 z m 30.5156,-14.5902 c 12.3296,-0.95 35.0785,-3.4386 49.287,-6.2168 58.6868,-4.40391 105.7577,-12.16808 160.1662,-13.51199 39.8312,-0.9806 45.1608,-8.3284 47.4208,-11.0516 2.6358,-3.1762 -1.4171,-3.6936 -17.7199,-2.2628 -8.2433,0.7236 -21.2459,1.421 -28.8944,1.5501 -7.6487,0.1293 -14.2948,0.4747 -14.7695,0.768 -0.4746,0.2933 -9.5166,0.8816 -20.0936,1.3073 -10.5768,0.4258 -21.3305,1.0226 -23.8972,1.3262 -11.3156,1.3386 -44.7754,5.1757 -75.693,5.1757 -29.5186,0 -38.0088,6.45849 -38.0095,8.27069 0,6.0224 -6.0892,6.7413 -11.2723,1.3314 -5.525,-5.767 -10.7449,-6.5201 -15.2536,-2.2005 -6.6,6.3232 -9.3877,-2.9831 -4.2746,-14.2708 4.8658,-10.7424 7.4197,-40.67399 7.9948,-45.30949 0.7696,-6.205 1.62,-7.3385 4.8688,-6.4889 8.172,2.1369 24.4237,-12.3744 23.1036,-20.6296 -1.0014,-6.2623 1.5933,-7.378 13.56,-5.8309 9.219,1.3823 47.8804,-10.22051 43.5092,-1.7312 -2.154,4.0249 -7.215,11.25 -25.9978,12.2639 -15.7354,0.8493 -18.6728,2.5278 -20.4172,6.7027 -2.326,5.5671 -9.756,12.4639 -19.0184,17.6539 -7.8053,4.3735 -7.4933,20.98409 -9.7622,33.77609 -0.3903,2.2 -1.342,4.7915 -2.1151,5.7588 -1.0543,1.3192 -0.4293,2.5568 2.5008,4.952 4.0695,3.3266 7.2397,4.2063 7.2397,2.0091 0,-0.7881 19.3308,-7.49439 43.3428,-7.51079 21.45,-0.015 33.894,-2.7831 39.0274,-3.1191 5.1333,-0.3358 17.1333,-0.9521 26.6666,-1.3693 20.417,-0.8935 47.3994,-2.2885 54,-2.792 2.5667,-0.1957 9.1667,-0.4753 14.6667,-0.6213 12.8485,-0.3411 14.2361,-0.7626 15.204,-4.6188 0.9504,-3.7871 6.2381,-7.8954 17.2135,-13.3742 7.5721,-3.7798 8.173,-4.4402 10.9225,-12 1.6003,-4.4 4.1469,-10.1677 5.6593,-12.8173 4.2,-7.3577 8.741,-16.4052 13.4014,-26.7016 0.2204,-0.4868 -1.4296,-1.8443 -3.6667,-3.0165 -2.2371,-1.1722 -5.9184,-3.1006 -8.1807,-4.2855 -4.2461,-2.2236 -9.2217,-8.9948 -9.1945,-12.5124 0.052,-6.7053 4.7576,-6.4769 13.2819,0.6449 6.8805,5.7486 13.5424,8.0646 17.3444,6.0298 8.4408,-4.5174 13.9245,8.5449 5.752,13.7012 -0.909,0.5734 -3.8532,5.6734 -6.5431,11.3333 -2.6899,5.66 -5.3983,11.1908 -6.0188,12.2908 -1.134,2.0105 -5.3772,10.9389 -6.9703,14.6667 -0.47,1.1 -1.3856,2.9 -2.0346,4 -4.8144,8.1596 -8.4488,22.6666 -5.6788,22.6666 7.9953,-15.07307 17.405,-31.92532 23.3138,-46 2.7562,-6.6 5.5447,-13.2 6.1968,-14.6666 3.0846,-6.9378 6.6262,-15.3203 9.2947,-22 1.6113,-4.0334 3.7788,-9.3038 4.8165,-11.7119 1.0376,-2.4083 1.8867,-4.6888 1.8867,-5.0679 0,-0.7253 -17.1085,0.5016 -18.516,1.328 -0.4495,0.264 -5.6173,0.8703 -11.484,1.3474 -5.8667,0.4772 -16.3667,1.4169 -23.3333,2.0884 -6.9667,0.6714 -22.5667,1.9042 -34.6667,2.7396 -12.1,0.8353 -22.9,1.8373 -24,2.2268 -1.1,0.3894 -5.5087,0.9276 -9.7969,1.1958 -4.2884,0.2683 -10.1256,1.1148 -12.9715,1.8811 -2.8459,0.7664 -7.1373,1.3224 -9.5364,1.2356 -2.3991,-0.087 -10.9619,0.5388 -19.0285,1.39 -8.0667,0.8513 -15.5667,1.5597 -16.6667,1.5741 -1.8567,0.024 -16.7825,1.6782 -46,5.0968 -6.6,0.7722 -15,1.6542 -18.6667,1.9598 -7.9074,0.6592 -42.0004,5.6902 -48.6666,7.1818 -4.1467,0.9278 -4.631,1.48 -4.3459,4.956 0.1765,2.1515 -0.069,4.8119 -0.5447,5.9119 -0.476,1.1 -1.0745,3.8 -1.3301,6 2.3195,0.76901 -21.9381,99.45205 -18.9455,98.87309 1.2834,-0.3878 6.8334,-1.0519 12.3334,-1.4756 z m 141.0794,-79.31399 c -17.8677,-6.0488 -26.5954,-29.5579 -15.0721,-40.598 7.9516,-7.6182 14.0791,-0.6872 8.6277,9.7589 -3.8317,7.3427 -0.4598,15.4695 6.999,16.8688 18.1704,3.4088 39.9978,-7.8008 41.5221,-21.3239 1.0485,-9.3018 0.1581,-8.9396 33.01,-13.428 25.9447,-3.5446 35.3333,-2.608 35.3333,3.5251 0,2.2696 -4.1153,5.4547 -6.2793,4.86 -0.5797,-0.1593 -4.354,0.4789 -8.3873,1.4183 -20.0759,4.6757 -25.3255,5.7164 -33.1582,6.5732 -8.4914,0.9288 -8.4914,0.9288 -10.6666,6.6437 -5.7124,15.0083 -18.2331,23.4001 -40.8567,27.384 -2.2315,0.3929 -7.1495,-0.3543 -11.0719,-1.6821 z m 11.8003,-26.6626 c -3.9684,-7.415 1.9231,-20.0876 9.3387,-20.0876 5.4701,0 6.4542,5.8724 2.5826,15.4116 -3.2586,8.0288 -8.9353,10.2555 -11.9213,4.676 z m 95.9531,59.9124 c 0,-0.7333 -0.9,-1.3333 -2,-1.3333 -1.1,0 -2,0.6 -2,1.3333 0,0.7334 0.9,1.3334 2,1.3334 1.1,0 2,-0.6 2,-1.3334 z m -250.6667,-100.4842 c 0,-1.7576 -12.3359,-14.1824 -14.0811,-14.1824 -0.474,0 0.8503,2.0346 2.943,4.5214 2.0926,2.4868 5.0048,6.0591 6.4714,7.9384 2.983,3.8222 4.6667,4.4436 4.6667,1.7226 z m 13.1064,-18.1406 c 7.2412,-9.3345 7.2873,-9.6402 1.8671,-12.3788 -2.002,-1.0116 -5.0535,-2.6996 -6.781,-3.751 -2.824,-1.7192 -3.2945,-1.661 -4.6666,0.5776 -0.8392,1.3692 -3.7626,5.242 -6.4962,8.6062 -5.0438,6.2072 -4.8321,8.5599 0.6751,7.4994 2.5252,-0.4864 4.1211,-2.0387 8.4939,-8.2619 2.1422,-3.0487 7.6482,-4.0717 9.1176,-1.6943 1.1285,1.826 -1.6234,6.5678 -6.8627,11.8254 -2.4469,2.4553 -4.09,5.0453 -3.6511,5.7553 0.4388,0.71 0.9812,1.1011 1.2055,0.8689 0.2241,-0.2321 3.4184,-4.3032 7.0984,-9.0468 z m -30.4397,-3.3089 c 0,-1.0636 0.8289,-2.4136 1.8421,-3 2.2707,-1.3144 10.1579,-12.904 10.1579,-14.9263 0,-3.0229 -2.2708,-1.304 -5.2278,3.9572 -1.6786,2.9868 -4.803,7.2216 -6.9429,9.4108 -2.14,2.1892 -3.5417,4.5455 -3.1148,5.2362 1.1895,1.9245 3.2855,1.492 3.2855,-0.6779 z m -26.83,136.79207 c -1.8333,-1.332 -10.2412,-8.49217 -15.6246,-9.35497 -15.4924,-2.84771 -24.3388,-14.6204 -24.3388,-14.6204 -0.9676,-25.13441 -1.2482,-64.6695 -5.0318,-68.697 -9.306,-9.9057 4.3581,-14.9864 14.1012,-5.2433 12.7895,12.84776 25.3985,17.04719 38.8081,23.724 3.65,1.8333 7.2372,3.3333 7.9713,3.3333 1.804,0 9.62,9.0158 9.5766,11.0464 -0.045,2.081 -5.6636,18.8732 -8.3499,24.9536 -1.134,2.5667 -1.4208,13.64302 -4.1342,20.24302 -6.8274,16.6063 -7.4313,18.64485 -12.9779,14.61535 z m -0.3388,-21.37918 c 3.1358,-10.0323 8.9196,-31.78579 10.7768,-34.68289 2.4229,-3.7795 -0.9391,-7.3265 -8.2576,-8.7119 -4.8267,-0.9137 -23.2083,-10.0624 -28.3466,-14.1082 -4.3589,-3.4323 -5.2684,-0.57 -5.515,17.3572 -0.1187,8.6357 6.4259,21.06909 3.5417,30.81239 -1.4564,4.9199 11.1178,14.2691 21.3207,13.6504 4.5272,-0.2745 5.3976,-0.8544 6.48,-4.317 z m 191.6118,-102.24769 c -1.0252,-2.6715 3.2652,-9.6305 6.5423,-10.6119 1.6581,-0.4965 6.6147,-2.5884 11.0147,-4.6486 24.4292,-11.4386 66,-12.2136 66,-1.2306 0,2.2432 -5.7868,3.7915 -7.8719,2.106 -7.6933,-6.2189 -55.2916,3.9003 -68.1281,14.4838 -2.5535,2.1053 -6.7322,2.0508 -7.557,-0.099 z m -47.5998,-3.6859 c -3.6939,-1.453 -3.8014,-1.7534 -3.1672,-8.8581 0.6565,-7.3541 0.6565,-7.3541 -6.7048,-7.5768 -7.7519,-0.2345 -13.4735,-4.4805 -13.5899,-10.0852 -0.027,-1.3031 -1.4444,-2.6584 -3.2549,-3.1129 -1.7638,-0.4427 -4.5247,-2.2076 -6.1355,-3.9222 -2.9285,-3.1173 -2.9285,-3.1173 -10.3621,1.6379 -14.012,8.9633 -29.9771,3.3581 -27.5336,-9.6668 0.9545,-5.0884 -0.7896,-6.1743 -3.6863,-2.2948 -2.0324,2.7219 -6.6001,3.0931 -7.4299,0.6037 -2.0504,-6.1512 5.4319,-11.8684 13.7635,-10.5164 2.8296,0.4592 6.1332,-0.061 8.7839,-1.3834 6.0248,-3.0056 17.585,-2.541 21.6974,0.8718 1.8294,1.5183 2.5483,1.4404 4.7027,-0.5092 6.9203,-6.2628 24.0735,-3.165 24.0735,4.3476 0,3.3259 4.338,6.6116 10.1745,7.7066 6.9971,1.3126 10.3149,5.9469 9.4909,13.2569 -0.5536,4.9125 -0.2532,6.3104 1.4871,6.9183 8.7267,3.0481 12.3233,13.6013 6.5141,19.1136 -5.562,5.2777 -11.4621,6.3652 -18.8234,3.4694 z m 11.7144,-8.3549 c 2.3113,-0.8869 2.8669,-5.2316 0.83,-6.4905 -1.954,-1.2076 -6.721,2.306 -6.721,4.9538 0,2.4054 2.1595,2.9686 5.891,1.5367 z m -12.372,-19.1072 c 2.5469,-2.09 2.8689,-3.0389 1.6872,-4.9713 -3.6807,-6.0182 -16.019,-3.1751 -14.3255,3.3009 1.2003,4.5899 7.9876,5.4871 12.6383,1.6704 z m -49.6462,-10.8065 c 6.9582,-3.1568 9.8866,-6.4904 7.8538,-8.9399 -1.7938,-2.1613 -13.6212,-2.1639 -17.1592,0 -2.321,1.4171 -3.0151,1.2819 -4.6348,-0.9027 -1.0478,-1.413 -2.3075,-2.1668 -2.7995,-1.6748 -0.492,0.4919 0.1013,1.9954 1.3196,3.341 1.2177,1.3456 2.214,2.8704 2.214,3.3884 0,6.3374 5.4448,8.313 13.2061,4.7917 z m 30.4972,-3.3526 c 3.4154,-2.3922 3.7852,-4.9158 1.0526,-7.1837 -3.8058,-3.1584 -11.3592,4.8783 -7.867,8.3704 1.4247,1.4248 3.6358,1.0397 6.8144,-1.1867 z m 213.9338,32.6898 c -3.627,-1.4567 -5.1238,-4.6862 -3.2299,-6.9683 1.5572,-1.8763 -0.9621,-6.3125 -3.5849,-6.3125 -1.0772,0 -0.973,-0.9158 0.3414,-3 4.8968,-7.765 3.262,-12.8527 -4.1637,-12.9576 -1.65,-0.023 -3,-0.5148 -3,-1.0922 0,-0.5773 -1.9101,-1.1952 -4.2447,-1.3732 -8.2221,-0.6264 -10.9629,-6.084 -5.8345,-11.6176 6.28,-6.7762 2.322,-14.3216 -11.0033,-20.9766 -6.6319,-3.3122 -8.0219,-5.347 -9.0823,-13.2967 -2.51,-18.8177 -15.8737,-27.2279 -31.3691,-19.7413 -5.1144,2.4709 -5.8904,2.5321 -8.707,0.6865 -13.1035,-8.5857 18.1565,-18.1724 33.5832,-10.2991 8.5185,4.3475 14.4902,13.1951 16.0853,23.8316 0.9749,6.501 7.1784,14.2759 10.416,13.0548 6.3027,-2.3772 15.8493,13.8787 14.0501,23.924 -0.9154,5.111 -0.883,5.1591 5.2592,7.8227 12.7642,5.5352 16.4588,13.2495 11.6711,24.368 -1.1731,2.724 -1.3043,4.6801 -0.4115,6.1321 1.6322,2.6546 0.1134,9.231 -2.1046,9.1167 -0.9027,-0.047 -3.0046,-0.632 -4.6708,-1.3013 z m -131.6371,-9.4071 c -6.2169,-1.8947 -16.9021,-10.3272 -16.406,-12.9473 0.7164,-3.7842 7.8892,-3.5874 12.458,0.3418 2.1715,1.8674 4.3545,3.3959 4.8515,3.3968 0.8562,0 9.0965,-16.4365 9.0965,-18.1462 0,-12.7368 10.468,-16.795 18.3449,-7.1116 10.2339,12.5805 11.6623,13.1496 17.571,7.0004 16.3364,-17.0014 22.8656,-15.0844 23.6869,6.9544 0.6887,18.4798 -9.1393,19.8764 -11.4473,1.6266 -0.8839,-6.9886 -0.8839,-6.9886 -6.8531,0.673 -7.84,10.063 -10.0052,10.0296 -21.3024,-0.3283 -8.8576,-8.1212 -11.1725,-9.5363 -9.8155,-6 0.4222,1.1 0.1027,2 -0.7085,2 -0.8119,0 -1.476,0.7689 -1.476,1.7088 0,2.1575 -11.9433,22.3332 -13.1244,22.1709 -0.4816,-0.067 -2.6756,-0.6688 -4.8756,-1.3393 z m 73.2915,-0.5404 c -0.3436,-1.1 -0.912,-2.9157 -1.2631,-4.0351 -0.7747,-2.4698 7.3536,-6.7432 10.5171,-5.5293 3.0656,1.1764 2.6052,5.3116 -0.9648,8.6653 -3.578,3.3614 -7.3908,3.775 -8.2892,0.8991 z M 1569.92,539.19333 c -6.2146,-2.27485 -10.1598,-7.17965 -14.7934,-10.6504 -36.5195,-29.61696 -66.3264,-81.89133 -57.7711,-130.6829 1.9047,-9.7973 9.3125,-26.83406 12.7117,-30.65957 9.5358,-13.39268 25.3751,-24.06212 34.3927,-26.66163 7.3333,-2.0407 16.9333,-4.5091 21.3333,-5.4854 7.9204,-1.7573 34.331,-7.7413 43.3334,-9.8182 5.2008,-1.19989 16.3769,-2.09445 31.339,-5.06615 85.7455,-10.90168 191.9902,-20.89482 211.1665,-20.79519 20.1567,-0.74285 56.5441,0.14926 79.2358,11.81779 20.8017,10.69663 28.2277,11.85061 42.1385,26.50635 1.7674,1.9 5.3674,3.8427 8,4.3171 7.0568,1.2716 9.4535,2.8993 9.4535,6.4201 0,3.0374 -8.2007,22.0011 -11.2829,26.0915 -0.829,1.1 -3.5279,6.8 -5.9978,12.6666 -2.4697,5.8667 -5.1917,11.5667 -6.0488,12.6667 -0.857,1.1 -3.5272,5.6 -5.9336,10 -16.4646,30.1053 -22.8756,21.834 -7.4873,-9.6601 1.8793,-3.8464 3.4171,-7.5464 3.4171,-8.2222 0,-0.6759 0.45,-1.4288 1,-1.6732 0.55,-0.2445 2.5301,-3.7445 4.4002,-7.7778 1.87,-4.0334 5.3719,-11.3569 7.7816,-16.2746 2.4099,-4.9176 4.0027,-9.5541 3.5398,-10.3032 -0.8054,-1.303 -37.2368,-0.8832 -46.7216,0.5383 -2.2,0.3297 -9.1,0.9715 -15.3334,1.4262 -6.2333,0.4547 -18.8333,1.6552 -28,2.6678 -9.1666,1.0126 -21.1666,2.1941 -26.6666,2.6255 -5.5,0.4315 -11.9466,1.0512 -14.3258,1.3771 -2.379,0.3259 -9.259,0.9413 -15.2886,1.3675 -6.0296,0.4261 -11.2831,0.9693 -11.6743,1.207 -0.3912,0.2376 -5.8113,0.8275 -12.0447,1.3107 -6.2333,0.4833 -16.7333,1.5332 -23.3333,2.3333 -6.6,0.8001 -14.1,1.5645 -16.6667,1.6987 -2.5666,0.1341 -9.4666,0.932 -15.3333,1.773 -5.8667,0.841 -23.2667,2.4508 -38.6667,3.5773 -45.8562,3.3545 -44.2126,3.1172 -46.5765,6.7249 -1.1496,1.7545 -2.0901,3.9911 -2.0901,4.9702 0,0.9792 -0.6591,2.4393 -1.4644,3.2447 -1.8856,1.8856 -16.6106,35.9554 -20.0551,46.4022 -1.4508,4.4 -3.4429,9.5 -4.4269,11.3334 -2.7216,5.0709 -12.7203,29.4554 -12.7203,31.0221 0,0.7583 -1.4729,4.4385 -3.2733,8.1783 -3.9651,8.2368 -7.4023,17.5018 -8.3404,22.4825 -2.7421,9.35758 -13.518,35.16011 -21.888,21.2321 -3.4888,-8.66933 4.592,-18.9034 7.4453,-26.5817 3.4565,-9.35 7.1029,-18.8 8.1032,-21 1.0003,-2.2 3.4101,-7.9 5.3552,-12.6667 1.9452,-4.7666 4.8965,-11.6666 6.5587,-15.3333 1.6621,-3.6667 5.2301,-12.6667 7.9289,-20 6.7188,-18.2568 12.1251,-31.0663 20.3687,-48.2619 4.4209,-9.2219 5.9321,-7.7973 -18.9242,-17.8388 -1.4666,-0.5925 -4.7469,-1.4886 -7.2896,-1.9912 -2.5425,-0.5026 -5.5425,-1.4113 -6.6666,-2.0194 -13.5688,-7.3398 -50.2015,-10.1035 -66.3913,-4.29768 -7.4301,2.66454 -15.8785,8.37191 -21.5437,14.14308 -20.2316,27.95885 -15.0523,60.11661 -0.6029,90.5022 1.9133,3.9034 4.1461,8.597 4.9617,10.4304 4.778,10.7412 19.8195,27.2789 46.1732,50.7664 11.6315,10.3665 7.9787,18.378 -4.514,9.9002 z m 113.3261,-171.08181 c -22.993,-23.77897 -59.1001,-23.15456 -70.556,-29.61972 -7.6347,1.92379 -10.4298,1.72243 -25.5635,5.23833 -8,2.3034 -8,2.3034 3.3333,3.9963 13.3759,1.9979 23.5964,4.5287 32.6667,8.0888 7.9937,3.1375 29.8881,11.5434 33.3333,12.7977 2.2,0.8009 7.6,1.1562 12,0.7897 4.4,-0.3666 12.7695,-1.23361 14.7862,-1.29111 z m 30.5471,-2.25829 c 5.8667,-0.4215 15.7667,-1.3151 22,-1.9858 6.2334,-0.6707 17.6334,-1.863 25.3334,-2.6495 7.7,-0.7866 16.1,-1.7665 18.6666,-2.1778 2.5667,-0.4112 7.3667,-0.9563 10.6667,-1.2113 3.3,-0.255 9.9,-0.8869 14.6667,-1.4044 4.7666,-0.5174 10.3204,-1.0598 12.3417,-1.2054 4.9815,-0.3587 5.3948,-1.0265 4.3741,-7.0679 -2.4449,-14.471 -20.5512,-22.62676 -38.3738,-18.04236 -18.1764,4.6754 -23.2403,7.86796 -22.5042,19.83936 0.5236,8.5149 -0.5032,8.7578 -36.5045,8.6345 -21.6887,-0.074 -31.3333,2.0372 -31.3333,6.8599 0,2.4391 0.5786,2.6668 5,1.9677 2.75,-0.4349 9.8,-1.1355 15.6666,-1.557 z m 77.3334,-15.6374 c -1.4667,-0.8597 -4.6995,-1.5914 -7.184,-1.6261 -7.9758,-0.1113 -9.4698,-11.3909 -1.6566,-12.5065 4.1764,-0.5963 15.6688,3.2718 18.6866,6.2895 5.4398,5.4398 -2.778,11.9861 -9.846,7.8431 z m 68,0.9256 c 6.6,-0.4405 16.2262,-1.3287 21.3916,-1.9736 5.1653,-0.6449 13.2653,-1.559 18,-2.0312 4.7346,-0.4723 10.4084,-1.1123 12.6084,-1.4222 2.2,-0.3099 9.4,-0.9037 16,-1.3196 32.3978,-2.0414 32.8489,-2.75457 22.5199,-10.93987 -31.8457,-20.64106 -66.1435,-25.39005 -69.5949,-23.70536 4.0007,1.73593 10.2642,7.76455 20.7163,12.77714 2.3797,0 7.0253,6.21749 7.0253,9.40249 0,5.2738 -3.0264,7.3243 -7.8569,5.3234 -5.5971,-2.3184 -26.2448,1.3293 -38.1431,6.7385 -6.4433,2.9292 -20.2304,4.5269 -23.1425,2.6817 -5.0704,-3.2127 -0.4652,-9.1206 8.8872,-11.4013 4.9071,-1.1967 11.622,-3.106 14.922,-4.2429 3.3,-1.1369 8.9623,-2.8018 12.5828,-3.6998 19.0069,-0.0903 -5.0172,-14.77985 -19.2367,-17.31991 -38.2005,-0.0221 -125.9617,11.21796 -194.2895,18.21583 -4.5975,0.7707 -33.6758,5.19407 -32.6127,6.04257 6.0731,-2.63595 48.3202,11.26281 48.7128,14.46381 2.1698,1.1735 5.8437,1.113 15.51,-0.2555 15.6064,-2.2093 28.5246,-2.5603 46.403,-1.2607 13.7364,0.9985 13.7364,0.9985 12.8534,-2.5203 -5.1852,-20.65919 38.6153,-34.29136 62.3694,-21.65506 11.2211,5.96919 21.8032,21.64816 18.831,26.48716 -1.5479,2.5201 1.5245,3.8348 7.3536,3.1465 3.4042,-0.4019 11.5896,-1.0912 18.1896,-1.5318 z m -232.2746,185.6171 c -10.4842,-3.8389 -8.4502,-8.1969 3.1999,-6.8558 7.6073,0.8757 9.3596,-1.8204 10.4261,-16.0427 0.2199,-2.9333 0.4559,-5.7679 0.5243,-6.2991 0.3219,-2.5004 8.656,-5.0342 16.558,-5.0342 8.398,0 8.5816,-0.076 9.3444,-3.8908 2.3392,-11.6962 21.4292,-20.1866 29.7887,-13.2488 2.273,1.8865 4.0172,0.5154 7.146,-5.6175 1.471,-2.8836 3.2057,-5.2429 3.8548,-5.2429 0.6489,0 4.3868,-4.336 8.3061,-9.6355 12.4321,-16.8096 17.1199,-19.8969 25.1417,-16.5583 2.5582,1.0647 7.9512,2.2872 11.9846,2.7168 4.6572,0.4962 7.9416,1.6094 9,3.0506 4.3494,5.9222 -0.2551,7.9881 -14.0302,6.2944 -12.0113,-1.4768 -13.849,-1.1516 -16.9698,3.0025 -1.4667,1.9524 -4.7667,6.0761 -7.3334,9.1639 -2.5666,3.0877 -7.0548,8.6932 -9.9737,12.4565 -2.9188,3.7633 -6.2188,6.8613 -7.3333,6.8845 -2.5446,0.053 4.6236,6.6246 7.2258,6.6246 2.483,0 3.3674,4.4372 1.4164,7.1053 -2.874,3.9304 -18.018,-2.6059 -21.8333,-9.4235 -3.8999,-6.9686 -18.3408,0 -17.1263,8.268 1.1262,7.6636 -1.3676,10.4755 -8.3209,9.3823 -15.3656,-2.4156 -17.9112,-1.8912 -19.4233,4.0012 -2.6254,10.23 -4.8512,15.3333 -6.6879,15.3333 -1.0173,0 -2.4919,1.2 -3.2768,2.6667 -1.5936,2.9776 -5.1732,3.2548 -11.6079,0.8985 z m 417.6074,-4.0797 c -5.1734,-2.2547 -7.0312,-4.5877 -7.5659,-9.5013 -0.568,-5.2196 5.304,-6.3322 11.0397,-2.0915 2.0636,1.5257 4.5563,2.774 5.5394,2.774 2.6812,0 4.9873,2.8317 4.9873,6.124 0,4.7017 -6.5172,5.9561 -14.0005,2.6948 z m -85.7982,-13.1508 c -0.844,-0.844 -1.5346,-3.5147 -1.5346,-5.9347 0,-3.0222 -0.6263,-4.4 -2,-4.4 -2.7648,0 -2.5883,-6.2049 0.2212,-7.7772 2.6172,-1.4646 9.755,0.2695 11.3313,2.7528 3.7884,5.9688 -3.4816,19.8954 -8.0179,15.3591 z m -136.1777,-3.8417 c -9.9672,-6.0762 -11.3205,-13.7016 -2.6903,-15.1596 19.8222,-3.349 36.8186,11.647 18.8558,16.6364 -7.2318,2.0086 -11.0148,1.663 -16.1655,-1.4768 z m -242.9363,-15.192 c -12.1589,-3.2058 -33.437,-20.0186 -40.458,-31.9676 -3.3332,-5.6727 -10.2153,-23.7506 -9.737,-25.5772 0.1568,-0.5992 -0.4298,-4.269 -1.3036,-8.1551 -3.0067,-13.3721 -2.1892,-20.9209 2.8801,-26.5972 2.4579,-2.7521 4.8985,-6.8039 5.4236,-9.0039 3.6257,-15.1892 39.2467,-26.1747 61.3321,-18.9148 12.1202,3.9841 15.7568,5.5168 16.2715,6.8579 0.3125,0.8146 3.2393,2.9402 6.504,4.7236 9.2467,5.0512 9.4369,16.6833 0.2576,15.7533 -3.7003,-0.3749 -4.2368,0.028 -5.0001,3.7532 -0.4704,2.2952 -2.0731,5.4806 -3.5618,7.0783 -2.5149,2.6995 -5.392,12.1572 -8.413,27.6561 -3.7003,18.9831 -7.2127,34.5039 -7.9416,35.0924 -1.9994,1.6142 -4.2247,9.4859 -3.2915,11.6427 3.4047,7.8695 -1.3984,10.7072 -12.9623,7.6583 z m 5.1148,-21.9695 c 1.6846,-4.6811 2.7834,-8.7904 2.4419,-9.1319 -0.3415,-0.3414 0.047,-1.4261 0.8641,-2.4102 0.8168,-0.9842 1.1535,-1.7894 0.7483,-1.7894 -0.4053,0 -0.124,-1.95 0.6241,-4.3333 1.528,-4.8648 3.934,-14.5579 6.9876,-28.1508 1.1307,-5.0329 2.5902,-9.8329 3.2434,-10.6667 0.653,-0.8337 1.555,-3.0597 2.0042,-4.9466 0.4492,-1.887 2.3664,-5.7144 4.2604,-8.5055 3.5178,-5.1837 3.5626,-8.7304 0.1107,-8.7304 -1.0619,0 -2.1413,-0.632 -2.3989,-1.4045 -1.8026,-5.4077 -32.217,-7.8732 -44.5354,-3.6101 -6.7602,2.3395 -15.4578,9.1069 -14.5996,11.3595 1.1882,3.1184 -1.7526,8.3218 -4.7032,8.3218 -2.5577,0 -2.739,0.5213 -1.9712,5.6666 4.8814,32.7086 11.9183,45.883 32.6944,61.2099 10.4932,7.7411 10.4015,7.7596 14.2298,-2.8784 z m 204.1312,22.9491 c -6.1016,-1.245 -1.653,-6.9343 5.4424,-6.9603 4.1759,-0.015 17.5576,-5.9565 17.5576,-7.7952 0,-5.0948 -22.1124,-5.7093 -26.7676,-0.7439 -11.5153,12.283 -31.6557,12.9851 -37.9364,1.3227 -3.4304,-6.3699 -1.5917,-11.0123 2.2707,-5.7332 7.2544,9.9149 17.0515,9.4879 29.1249,-1.2697 5.5815,-4.973 3.404,-6.8928 -8.3684,-7.3783 -15.7482,-0.6493 -13.4384,-4.5028 3.5402,-5.9059 10.0533,-0.8308 16.8033,2.0279 16.8033,7.1163 0,1.696 1.2673,1.9511 6.9709,1.4031 16.423,-1.578 28.4151,9.0925 19.3624,17.2285 -5.4896,4.9337 -21.742,9.9928 -28,8.7159 z m 120.7378,-3.7483 c -2.286,-1.7737 -2.2895,-1.9549 -0.071,-3.6792 1.2833,-0.9976 2.3333,-2.4976 2.3333,-3.3333 0,-2.4268 7.9622,-1.8364 8.9207,0.6614 1.9645,5.1192 -6.5433,9.9511 -11.1829,6.3511 z m -14.1435,-6.8656 c -1.4916,-7.6328 6.9092,-15.5832 15.5729,-14.738 5.0515,0.4928 6.0078,6.0557 1.4375,8.3615 -1.5008,0.757 -4.6307,3.3265 -6.9551,5.7098 -5.2894,5.4232 -9.0766,5.6744 -10.0553,0.6667 z m 35.4807,0.142 c -12.6651,-4.4867 -8.6778,-19.142 5.208,-19.142 4.4982,0 5.0504,0.3644 5.0504,3.3333 0,1.9424 -0.7664,3.3334 -1.8368,3.3334 -1.0102,0 -2.5778,0.8929 -3.4835,1.9842 -2.4608,2.9651 2.0651,4.295 5.1416,1.5108 3.2584,-2.9489 4.8385,-2.7214 7.3112,1.0522 5.0576,7.719 -5.0165,12.3117 -17.3909,7.9281 z m -60.9015,-2.4485 c -10.8917,-3.1736 -10.8644,-18.0268 0.033,-18.0268 3.4798,0 4.3003,3.2644 1.1267,4.4821 -2.7647,1.0609 -2.5183,4.8043 0.3333,5.0624 7.517,0.6807 15,-2.1952 15,-5.7648 0,-1.6841 -0.7837,-2.4289 -2.2849,-2.1715 -2.9469,0.5052 -3.9551,-4.0106 -1.1369,-5.0921 12.7377,-4.8879 18.6318,12.2521 6.0885,17.7053 -11.0767,4.8156 -13.8216,5.3608 -19.1599,3.8054 z m 142.0812,-0.3156 c -4.8373,-0.9175 -3.4117,-6.6103 2.412,-9.6312 27.7093,-14.3738 35.0051,-16.1227 35.7396,-8.5675 0.4043,4.1577 -4.366,9.8208 -8.2725,9.8208 -0.8288,0 -5.0979,1.7264 -9.487,3.8365 -8.3341,4.0067 -15.1765,5.5306 -20.3921,4.5414 z m -173.5413,-16.5179 c -8.091,-9.7824 -13.4378,-12.3811 -25.857,-12.5671 -14.7917,-0.2214 -18.5836,-2.8376 -12.9785,-8.9544 5.1705,-5.6422 30.7293,0.3576 39.6888,9.317 2.5361,2.5361 4.7496,4.4012 4.9189,4.1445 1.2082,-1.8317 3.5144,-8.2651 3.5144,-9.8035 0,-8.549 18.1112,-21.9005 29.7986,-21.9672 12.4762,-0.071 23.514,12.1943 22.3428,24.828 -0.3716,4.0075 -4.2527,2.8183 -6.7447,-2.0666 -4.0035,-7.8474 -9.8871,-12.2164 -15.114,-11.2235 -12.8133,2.4343 -22.0069,11.4567 -24.2173,23.7661 -2.0092,11.1896 -8.3058,13.0462 -15.352,4.5267 z m -172.399,-5.0859 c -5.1782,-2.4176 -15.1456,-14.309 -16.4926,-19.6765 -2.022,-8.056 5.862,-7.9757 11.4294,0.116 2.2254,3.2343 6.41,7.9041 9.2994,10.3773 10.5186,9.0036 7.8358,14.8192 -4.2362,9.1828 z m 115.7231,-10.7017 c -3.8019,-7.352 -0.9525,-12.4953 5.3353,-9.6304 4.5516,2.0739 4.5504,8.428 0,11.4108 -3.1957,2.094 -3.3577,2.0399 -5.3333,-1.7804 z m 189.3627,0.2876 c -1.5676,-4.0852 -0.5715,-8.0549 3.3641,-13.4065 9.1635,-12.4604 36.7703,-31.6514 37.3348,-25.9535 0.055,0.55 0.3428,2.298 0.6407,3.8844 0.6662,3.5487 -1.0446,5.4765 -15.603,17.5835 -6.3413,5.2736 -13.0646,11.6006 -14.9406,14.0601 -3.7328,4.8941 -9.5906,6.9732 -10.796,3.832 z M 1710.93,432.10873 c -7.7309,-6.1202 -7.0092,-29.582 0.9102,-29.582 4.1912,0 4.1692,-0.047 4.6292,10 0.1342,2.9333 0.657,8.0721 1.162,11.4196 1.2001,7.9577 -2.0142,11.8728 -6.7014,8.1624 z m 58.125,-7.37 c -5.6562,-4.2979 -6.933,-20.4084 -1.721,-21.7166 4.395,-1.103 7.1259,2.096 7.1259,8.3474 0,2.3832 0.5196,4.6542 1.1545,5.0466 1.7942,1.109 0.1067,7.3886 -2.3366,8.6963 -1.3675,0.7319 -2.9524,0.5916 -4.2228,-0.3737 z m 77.3722,-3.796 c -9.2017,-10.0746 -8.0714,-38.0304 1.8712,-46.282 5.3598,-4.4482 10.0091,2.4585 6.8098,10.1157 -4.1615,9.9597 -4.841,19.1965 -2.1628,29.3979 2.1501,8.1892 2.2298,9.6376 0.5662,10.276 -2.8664,1.0998 -2.8842,1.091 -7.0844,-3.5076 z m 48.7014,-6.413 c -4.4864,-7.2589 1.8374,-28.003 8.5368,-28.003 4.6208,0 6.2706,7.0961 3.1,13.3333 -0.932,1.8333 -2.8607,6.1833 -4.286,9.6667 -2.4412,5.9664 -5.4782,8.0333 -7.3508,5.003 z" fill="#181C52" transform="translate(10.712038,9.7677462) matrix(0.26458333,0,0,0.26458333,-406.49624,-88.925861)"/>
</svg>